<!DOCTYPE svg PUBLIC "-//W3C//DTD SVG 1.1//EN" "http://www.w3.org/Graphics/SVG/1.1/DTD/svg11.dtd">
<!-- Uploaded to: SVG Repo, www.svgrepo.com, Transformed by: SVG Repo Mixer Tools -->
<svg fill="#1c5e17" width="800px" height="800px" viewBox="0 0 50 50" version="1.2" baseProfile="tiny" xmlns="http://www.w3.org/2000/svg" overflow="inherit" stroke="#1c5e17">
<g id="SVGRepo_bgCarrier" stroke-width="0"/>
<g id="SVGRepo_tracerCarrier" stroke-linecap="round" stroke-linejoin="round"/>
<g id="SVGRepo_iconCarrier">
<path d="M30 8v33h-24v-33h24m4-4h-32v42h32v-42zm-25 8h18v4h-18zm0 7h18v4h-18zm0 7h18v4h-18zm0 7h18v4h-18zm31-21h8v28h-8zm4.006-11c-2.194 0-4.006 1.765-4.006 3.937v4.063h8v-4.063c0-2.172-1.809-3.937-3.994-3.937zm-4.068 42l4.041 6.387 4.021-6.387z"/>
</g>
</svg>